<?xml version="1.0" standalone="no"?>
<svg xmlns="http://www.w3.org/2000/svg" viewBox="0 0 144.12 28.396" width="144.12" height="28.396"><g fill="#ff5576" color="#ff5576" transform="translate(0, 0) scale(0.6041667)"><svg width="48.0" height="47.0" x="0.0" y="0.0" viewBox="0 0 48 47"><path fill="currentColor" fill-rule="evenodd" d="M32.083 0l-.46.265-2.644 1.527-13.062 7.542L3.854 30.228.267 36.442l-.267.46 2.117 1.222 13.925 8.042.123.07H48V27.57l-.071-.124L34.953 4.97 32.083 0zM25.04 5.292l6.654-3.841 6.547 11.34-13.2-7.5zm-7.67 4.43l6.604-3.814 15.317 8.703 6.725 11.65-28.647-16.54zm-.531.92l29.566 17.07-29.566 17.07v-34.14zM9.171 40.97l-.123-17.615 6.728-11.65v33.078L9.17 40.97zm-7.72-4.457l6.547-11.338.107 15.18-6.654-3.842zm45.487-7.88v7.627l-15.194 8.912H18.29l28.648-16.54zm0 8.858v7.681H33.842l13.096-7.681zM23.567 22.294l9.384 5.42-9.384 5.417V22.294zm1.06 1.84v7.156l6.198-3.577-6.198-3.578z"></path></svg></g><line x1="41" y1="1" x2="41" y2="27.396" stroke="#0b0cac" stroke-linecap="round"></line><path fill="#0b0cac" fill-rule="nonzero" d="M18.22 16.80L12.60 16.80L11.90 14.47L6.12 14.47L5.42 16.80L0 16.80L6.02 0.29L12.19 0.29L18.22 16.80ZM8.98 4.90L7.22 10.78L10.80 10.78L9.07 4.90L8.98 4.90ZM35.88 5.35Q35.88 6.86 35.06 8.09Q34.25 9.31 32.69 9.89L32.69 9.89L36.36 16.80L30.41 16.80L27.48 10.78L25.51 10.78L25.51 16.80L20.21 16.80L20.21 0.29L30.31 0.29Q32.09 0.29 33.35 0.97Q34.61 1.66 35.24 2.82Q35.88 3.98 35.88 5.35L35.88 5.35ZM30.48 5.57Q30.48 4.92 30.05 4.49Q29.62 4.06 28.99 4.06L28.99 4.06L25.51 4.06L25.51 7.10L28.99 7.10Q29.62 7.10 30.05 6.66Q30.48 6.22 30.48 5.57L30.48 5.57ZM46.75 0Q49.13 0 51.02 0.72Q52.92 1.44 54.04 2.84Q55.15 4.25 55.15 6.26L55.15 6.26L50.09 6.26Q50.09 5.23 49.18 4.60Q48.26 3.96 46.97 3.96L46.97 3.96Q45.10 3.96 44.14 4.96Q43.18 5.95 43.18 7.78L43.18 7.78L43.18 9.31Q43.18 11.14 44.14 12.13Q45.10 13.13 46.97 13.13L46.97 13.13Q48.26 13.13 49.18 12.52Q50.09 11.90 50.09 10.94L50.09 10.94L46.34 10.94L46.34 7.58L55.15 7.58L55.15 16.80L52.42 16.80L51.89 15.17Q49.63 17.09 45.98 17.09L45.98 17.09Q41.88 17.09 39.82 14.94Q37.75 12.79 37.75 8.54L37.75 8.54Q37.75 4.34 40.09 2.17Q42.43 0 46.75 0L46.75 0ZM66.65 0Q70.92 0 73.25 2.18Q75.58 4.37 75.58 8.54L75.58 8.54Q75.58 12.72 73.25 14.90Q70.92 17.09 66.65 17.09L66.65 17.09Q62.38 17.09 60.06 14.92Q57.74 12.74 57.74 8.54L57.74 8.54Q57.74 4.34 60.06 2.17Q62.38 0 66.65 0L66.65 0ZM66.65 3.96Q64.94 3.96 64.06 4.99Q63.17 6.02 63.17 7.78L63.17 7.78L63.17 9.31Q63.17 11.06 64.06 12.10Q64.94 13.13 66.65 13.13L66.65 13.13Q68.35 13.13 69.25 12.10Q70.15 11.06 70.15 9.31L70.15 9.31L70.15 7.78Q70.15 6.02 69.25 4.99Q68.35 3.96 66.65 3.96L66.65 3.96ZM85.37 0Q88.54 0 90.58 1.28Q92.62 2.57 92.66 5.09L92.66 5.09L92.66 5.38L87.70 5.38L87.70 5.28Q87.70 4.56 87.17 4.08Q86.64 3.60 85.56 3.60L85.56 3.60Q84.50 3.60 83.94 3.91Q83.38 4.22 83.38 4.68L83.38 4.68Q83.38 5.33 84.14 5.64Q84.91 5.95 86.62 6.29L86.62 6.29Q88.61 6.70 89.89 7.14Q91.18 7.58 92.14 8.59Q93.10 9.60 93.12 11.33L93.12 11.33Q93.12 14.26 91.14 15.67Q89.16 17.09 85.85 17.09L85.85 17.09Q81.98 17.09 79.84 15.79Q77.69 14.50 77.69 11.21L77.69 11.21L82.70 11.21Q82.70 12.46 83.35 12.88Q84 13.30 85.37 13.30L85.37 13.30Q86.38 13.30 87.04 13.08Q87.70 12.86 87.70 12.19L87.70 12.19Q87.70 11.59 86.96 11.29Q86.23 10.99 84.58 10.66L84.58 10.66Q82.56 10.22 81.24 9.76Q79.92 9.29 78.94 8.21Q77.95 7.13 77.95 5.28L77.95 5.28Q77.95 2.57 80.05 1.28Q82.15 0 85.37 0L85.37 0Z" transform="translate(51, 5.798)"></path></svg>